<svg width="112" height="23" viewBox="0 0 112 23" fill="none" xmlns="http://www.w3.org/2000/svg">
<path fill-rule="evenodd" clip-rule="evenodd" d="M85 22H103.562L105.382 17H86.8198L85 22ZM87.9118 14H106.474L108.294 9H89.7316L87.9118 14ZM90.8235 6H109.386L111.206 1H92.6434L90.8235 6Z" fill="#F100CB"/>
<path d="M0.596236 22V0.90909H5.69389V9.82741H5.97195L12.9439 0.90909H18.9478L11.4712 10.3217L19.0817 22H12.9851L7.73295 13.7099L5.69389 16.2844V22H0.596236ZM39.6191 11.4545C39.6191 13.7751 39.1728 15.7421 38.2803 17.3555C37.3878 18.9689 36.1794 20.1944 34.6553 21.032C33.138 21.8696 31.4353 22.2884 29.5473 22.2884C27.6524 22.2884 25.9463 21.8661 24.4291 21.0217C22.9118 20.1772 21.7069 18.9517 20.8144 17.3452C19.9287 15.7318 19.4859 13.7682 19.4859 11.4545C19.4859 9.134 19.9287 7.16702 20.8144 5.55362C21.7069 3.94022 22.9118 2.71473 24.4291 1.87713C25.9463 1.03954 27.6524 0.620738 29.5473 0.620738C31.4353 0.620738 33.138 1.03954 34.6553 1.87713C36.1794 2.71473 37.3878 3.94022 38.2803 5.55362C39.1728 7.16702 39.6191 9.134 39.6191 11.4545ZM34.4081 11.4545C34.4081 10.0814 34.2124 8.92116 33.8211 7.97372C33.4366 7.02628 32.8805 6.30883 32.1528 5.82138C31.4319 5.33392 30.5634 5.0902 29.5473 5.0902C28.5381 5.0902 27.6696 5.33392 26.9419 5.82138C26.2141 6.30883 25.6546 7.02628 25.2632 7.97372C24.8788 8.92116 24.6865 10.0814 24.6865 11.4545C24.6865 12.8277 24.8788 13.9879 25.2632 14.9354C25.6546 15.8828 26.2141 16.6003 26.9419 17.0877C27.6696 17.5752 28.5381 17.8189 29.5473 17.8189C30.5634 17.8189 31.4319 17.5752 32.1528 17.0877C32.8805 16.6003 33.4366 15.8828 33.8211 14.9354C34.2124 13.9879 34.4081 12.8277 34.4081 11.4545ZM62.5019 11.4545C62.5019 13.7751 62.0556 15.7421 61.1631 17.3555C60.2706 18.9689 59.0622 20.1944 57.5381 21.032C56.0208 21.8696 54.3182 22.2884 52.4301 22.2884C50.5352 22.2884 48.8292 21.8661 47.3119 21.0217C45.7946 20.1772 44.5897 18.9517 43.6972 17.3452C42.8115 15.7318 42.3687 13.7682 42.3687 11.4545C42.3687 9.134 42.8115 7.16702 43.6972 5.55362C44.5897 3.94022 45.7946 2.71473 47.3119 1.87713C48.8292 1.03954 50.5352 0.620738 52.4301 0.620738C54.3182 0.620738 56.0208 1.03954 57.5381 1.87713C59.0622 2.71473 60.2706 3.94022 61.1631 5.55362C62.0556 7.16702 62.5019 9.134 62.5019 11.4545ZM57.2909 11.4545C57.2909 10.0814 57.0953 8.92116 56.7039 7.97372C56.3195 7.02628 55.7633 6.30883 55.0356 5.82138C54.3147 5.33392 53.4462 5.0902 52.4301 5.0902C51.4209 5.0902 50.5524 5.33392 49.8247 5.82138C49.0969 6.30883 48.5374 7.02628 48.146 7.97372C47.7616 8.92116 47.5693 10.0814 47.5693 11.4545C47.5693 12.8277 47.7616 13.9879 48.146 14.9354C48.5374 15.8828 49.0969 16.6003 49.8247 17.0877C50.5524 17.5752 51.4209 17.8189 52.4301 17.8189C53.4462 17.8189 54.3147 17.5752 55.0356 17.0877C55.7633 16.6003 56.3195 15.8828 56.7039 14.9354C57.0953 13.9879 57.2909 12.8277 57.2909 11.4545ZM63.8252 5.04901V0.90909H81.6515V5.04901H75.2563V22H70.2307V5.04901H63.8252ZM86.0695 22H80.5908L87.7069 0.90909H94.4935L101.61 22H96.1309L91.1775 6.22301H91.0127L86.0695 22ZM85.3383 13.6996H96.79V17.5717H85.3383V13.6996Z" fill="white"/>
</svg>
